<svg viewBox="0 0 64 64" xmlns="http://www.w3.org/2000/svg">
  <defs>
    <filter id="glow">
      <feGaussianBlur stdDeviation="1" result="coloredBlur"/>
      <feMerge>
        <feMergeNode in="coloredBlur"/>
        <feMergeNode in="SourceGraphic"/>
      </feMerge>
    </filter>
    <radialGradient id="node">
      <stop offset="0%" style="stop-color:#00f;stop-opacity:1"/>
      <stop offset="50%" style="stop-color:#00F;stop-opacity:1"/>
      <stop offset="100%" style="stop-color:#0099CC;stop-opacity:1"/>
    </radialGradient>
  </defs>
  
  <!-- Dense grid of nodes -->
  <!-- Row y=4 -->
  <circle cx="4" cy="4" r="1.2" fill="url(#node)" filter="url(#glow)"/><circle cx="8" cy="4" r="1.2" fill="url(#node)" filter="url(#glow)"/><circle cx="12" cy="4" r="1.2" fill="url(#node)" filter="url(#glow)"/><circle cx="16" cy="4" r="1.2" fill="url(#node)" filter="url(#glow)"/><circle cx="20" cy="4" r="1.2" fill="url(#node)" filter="url(#glow)"/><circle cx="24" cy="4" r="1.2" fill="url(#node)" filter="url(#glow)"/><circle cx="28" cy="4" r="1.2" fill="url(#node)" filter="url(#glow)"/><circle cx="32" cy="4" r="1.2" fill="url(#node)" filter="url(#glow)"/><circle cx="36" cy="4" r="1.2" fill="url(#node)" filter="url(#glow)"/><circle cx="40" cy="4" r="1.2" fill="url(#node)" filter="url(#glow)"/><circle cx="44" cy="4" r="1.2" fill="url(#node)" filter="url(#glow)"/><circle cx="48" cy="4" r="1.2" fill="url(#node)" filter="url(#glow)"/><circle cx="52" cy="4" r="1.2" fill="url(#node)" filter="url(#glow)"/><circle cx="56" cy="4" r="1.2" fill="url(#node)" filter="url(#glow)"/><circle cx="60" cy="4" r="1.2" fill="url(#node)" filter="url(#glow)"/>
  
  <!-- Row y=8 -->
  <circle cx="4" cy="8" r="1.2" fill="url(#node)" filter="url(#glow)"/><circle cx="8" cy="8" r="1.2" fill="url(#node)" filter="url(#glow)"/><circle cx="12" cy="8" r="1.2" fill="url(#node)" filter="url(#glow)"/><circle cx="16" cy="8" r="1.2" fill="url(#node)" filter="url(#glow)"/><circle cx="20" cy="8" r="1.2" fill="url(#node)" filter="url(#glow)"/><circle cx="24" cy="8" r="1.2" fill="url(#node)" filter="url(#glow)"/><circle cx="28" cy="8" r="1.2" fill="url(#node)" filter="url(#glow)"/><circle cx="32" cy="8" r="1.2" fill="url(#node)" filter="url(#glow)"/><circle cx="36" cy="8" r="1.2" fill="url(#node)" filter="url(#glow)"/><circle cx="40" cy="8" r="1.2" fill="url(#node)" filter="url(#glow)"/><circle cx="44" cy="8" r="1.2" fill="url(#node)" filter="url(#glow)"/><circle cx="48" cy="8" r="1.2" fill="url(#node)" filter="url(#glow)"/><circle cx="52" cy="8" r="1.2" fill="url(#node)" filter="url(#glow)"/><circle cx="56" cy="8" r="1.2" fill="url(#node)" filter="url(#glow)"/><circle cx="60" cy="8" r="1.2" fill="url(#node)" filter="url(#glow)"/>
  
  <!-- Row y=12: M starts here - left and right outer strokes -->
  <circle cx="4" cy="12" r="1.2" fill="url(#node)" filter="url(#glow)"/><circle cx="8" cy="12" r="1.2" fill="url(#node)" filter="url(#glow)"/><circle cx="12" cy="12" r="1.2" fill="url(#node)" filter="url(#glow)"/>
  <!-- skip 16 (left outer) --><circle cx="20" cy="12" r="1.2" fill="url(#node)" filter="url(#glow)"/><circle cx="24" cy="12" r="1.2" fill="url(#node)" filter="url(#glow)"/><circle cx="28" cy="12" r="1.2" fill="url(#node)" filter="url(#glow)"/><circle cx="32" cy="12" r="1.2" fill="url(#node)" filter="url(#glow)"/><circle cx="36" cy="12" r="1.2" fill="url(#node)" filter="url(#glow)"/><circle cx="40" cy="12" r="1.2" fill="url(#node)" filter="url(#glow)"/><circle cx="44" cy="12" r="1.2" fill="url(#node)" filter="url(#glow)"/>
  <!-- skip 48 (right outer) --><circle cx="52" cy="12" r="1.2" fill="url(#node)" filter="url(#glow)"/><circle cx="56" cy="12" r="1.2" fill="url(#node)" filter="url(#glow)"/><circle cx="60" cy="12" r="1.2" fill="url(#node)" filter="url(#glow)"/>
  
  <!-- Row y=16: diagonals start -->
  <circle cx="4" cy="16" r="1.2" fill="url(#node)" filter="url(#glow)"/><circle cx="8" cy="16" r="1.2" fill="url(#node)" filter="url(#glow)"/><circle cx="12" cy="16" r="1.2" fill="url(#node)" filter="url(#glow)"/>
  <!-- skip 16 (left outer) --><!-- skip 20 (left diagonal) --><circle cx="24" cy="16" r="1.2" fill="url(#node)" filter="url(#glow)"/><circle cx="28" cy="16" r="1.2" fill="url(#node)" filter="url(#glow)"/><circle cx="32" cy="16" r="1.2" fill="url(#node)" filter="url(#glow)"/><circle cx="36" cy="16" r="1.2" fill="url(#node)" filter="url(#glow)"/><circle cx="40" cy="16" r="1.2" fill="url(#node)" filter="url(#glow)"/>
  <!-- skip 44 (right diagonal) --><!-- skip 48 (right outer) --><circle cx="52" cy="16" r="1.2" fill="url(#node)" filter="url(#glow)"/><circle cx="56" cy="16" r="1.2" fill="url(#node)" filter="url(#glow)"/><circle cx="60" cy="16" r="1.2" fill="url(#node)" filter="url(#glow)"/>
  
  <!-- Row y=20 -->
  <circle cx="4" cy="20" r="1.2" fill="url(#node)" filter="url(#glow)"/><circle cx="8" cy="20" r="1.2" fill="url(#node)" filter="url(#glow)"/><circle cx="12" cy="20" r="1.2" fill="url(#node)" filter="url(#glow)"/>
  <!-- skip 16 (left outer) --><!-- skip 20,24 (left diagonal) --><circle cx="28" cy="20" r="1.2" fill="url(#node)" filter="url(#glow)"/><circle cx="32" cy="20" r="1.2" fill="url(#node)" filter="url(#glow)"/><circle cx="36" cy="20" r="1.2" fill="url(#node)" filter="url(#glow)"/>
  <!-- skip 40,44 (right diagonal) --><!-- skip 48 (right outer) --><circle cx="52" cy="20" r="1.2" fill="url(#node)" filter="url(#glow)"/><circle cx="56" cy="20" r="1.2" fill="url(#node)" filter="url(#glow)"/><circle cx="60" cy="20" r="1.2" fill="url(#node)" filter="url(#glow)"/>
  
  <!-- Row y=24 -->
  <circle cx="4" cy="24" r="1.2" fill="url(#node)" filter="url(#glow)"/><circle cx="8" cy="24" r="1.2" fill="url(#node)" filter="url(#glow)"/><circle cx="12" cy="24" r="1.2" fill="url(#node)" filter="url(#glow)"/>
  <!-- skip 16 (left outer) --><!-- skip 20,24,28 (left diagonal) --><!-- skip 32 (V bottom point) --><!-- skip 36,40,44 (right diagonal) --><!-- skip 48 (right outer) --><circle cx="52" cy="24" r="1.2" fill="url(#node)" filter="url(#glow)"/><circle cx="56" cy="24" r="1.2" fill="url(#node)" filter="url(#glow)"/><circle cx="60" cy="24" r="1.2" fill="url(#node)" filter="url(#glow)"/>
  
  <!-- Row y=28 -->
  <circle cx="4" cy="28" r="1.2" fill="url(#node)" filter="url(#glow)"/><circle cx="8" cy="28" r="1.2" fill="url(#node)" filter="url(#glow)"/><circle cx="12" cy="28" r="1.2" fill="url(#node)" filter="url(#glow)"/>
  <!-- skip 16 (left outer) --><!-- skip 20,24 (left diagonal) --><!-- skip 28,32,36 (V bottom area) --><!-- skip 40,44 (right diagonal) --><!-- skip 48 (right outer) --><circle cx="52" cy="28" r="1.2" fill="url(#node)" filter="url(#glow)"/><circle cx="56" cy="28" r="1.2" fill="url(#node)" filter="url(#glow)"/><circle cx="60" cy="28" r="1.2" fill="url(#node)" filter="url(#glow)"/>
  
  <!-- Row y=32 -->
  <circle cx="4" cy="32" r="1.2" fill="url(#node)" filter="url(#glow)"/><circle cx="8" cy="32" r="1.2" fill="url(#node)" filter="url(#glow)"/><circle cx="12" cy="32" r="1.2" fill="url(#node)" filter="url(#glow)"/>
  <!-- skip 16 (left outer) -->
  <!-- skip 24 (left inner leg) --><circle cx="28" cy="32" r="1.2" fill="url(#node)" filter="url(#glow)"/><circle cx="36" cy="32" r="1.2" fill="url(#node)" filter="url(#glow)"/>
  <!-- skip 40 (right inner leg) -->
  <!-- skip 48 (right outer) --><circle cx="52" cy="32" r="1.2" fill="url(#node)" filter="url(#glow)"/><circle cx="56" cy="32" r="1.2" fill="url(#node)" filter="url(#glow)"/><circle cx="60" cy="32" r="1.2" fill="url(#node)" filter="url(#glow)"/>
  
  <!-- Row y=36 -->
  <circle cx="4" cy="36" r="1.2" fill="url(#node)" filter="url(#glow)"/><circle cx="8" cy="36" r="1.2" fill="url(#node)" filter="url(#glow)"/><circle cx="12" cy="36" r="1.2" fill="url(#node)" filter="url(#glow)"/>
  
  <!-- skip 24 (left inner leg) --><circle cx="28" cy="36" r="1.2" fill="url(#node)" filter="url(#glow)"/><circle cx="32" cy="36" r="1.2" fill="url(#node)" filter="url(#glow)"/><circle cx="36" cy="36" r="1.2" fill="url(#node)" filter="url(#glow)"/>
  
  <!-- skip 48 (right outer) --><circle cx="52" cy="36" r="1.2" fill="url(#node)" filter="url(#glow)"/><circle cx="56" cy="36" r="1.2" fill="url(#node)" filter="url(#glow)"/><circle cx="60" cy="36" r="1.2" fill="url(#node)" filter="url(#glow)"/>
  
  <!-- Row y=40 -->
  <circle cx="4" cy="40" r="1.2" fill="url(#node)" filter="url(#glow)"/><circle cx="8" cy="40" r="1.2" fill="url(#node)" filter="url(#glow)"/><circle cx="12" cy="40" r="1.2" fill="url(#node)" filter="url(#glow)"/>
  
  <!-- skip 24 (left inner leg) --><circle cx="28" cy="40" r="1.2" fill="url(#node)" filter="url(#glow)"/><circle cx="32" cy="40" r="1.2" fill="url(#node)" filter="url(#glow)"/><circle cx="36" cy="40" r="1.2" fill="url(#node)" filter="url(#glow)"/>
  
  <!-- skip 48 (right outer) --><circle cx="52" cy="40" r="1.2" fill="url(#node)" filter="url(#glow)"/><circle cx="56" cy="40" r="1.2" fill="url(#node)" filter="url(#glow)"/><circle cx="60" cy="40" r="1.2" fill="url(#node)" filter="url(#glow)"/>
  
  <!-- Row y=44 -->
  <circle cx="4" cy="44" r="1.2" fill="url(#node)" filter="url(#glow)"/><circle cx="8" cy="44" r="1.2" fill="url(#node)" filter="url(#glow)"/><circle cx="12" cy="44" r="1.2" fill="url(#node)" filter="url(#glow)"/>
  
  <!-- skip 24 (left inner leg) --><circle cx="28" cy="44" r="1.2" fill="url(#node)" filter="url(#glow)"/><circle cx="32" cy="44" r="1.2" fill="url(#node)" filter="url(#glow)"/><circle cx="36" cy="44" r="1.2" fill="url(#node)" filter="url(#glow)"/>
  
  <!-- skip 48 (right outer) --><circle cx="52" cy="44" r="1.2" fill="url(#node)" filter="url(#glow)"/><circle cx="56" cy="44" r="1.2" fill="url(#node)" filter="url(#glow)"/><circle cx="60" cy="44" r="1.2" fill="url(#node)" filter="url(#glow)"/>
  
  <!-- Row y=48 -->
  <circle cx="4" cy="48" r="1.2" fill="url(#node)" filter="url(#glow)"/><circle cx="8" cy="48" r="1.2" fill="url(#node)" filter="url(#glow)"/><circle cx="12" cy="48" r="1.2" fill="url(#node)" filter="url(#glow)"/>
  
  <!-- skip 24 (left inner leg) --><circle cx="28" cy="48" r="1.2" fill="url(#node)" filter="url(#glow)"/><circle cx="32" cy="48" r="1.2" fill="url(#node)" filter="url(#glow)"/><circle cx="36" cy="48" r="1.2" fill="url(#node)" filter="url(#glow)"/>
  
  <!-- skip 48 (right outer) --><circle cx="52" cy="48" r="1.2" fill="url(#node)" filter="url(#glow)"/><circle cx="56" cy="48" r="1.2" fill="url(#node)" filter="url(#glow)"/><circle cx="60" cy="48" r="1.2" fill="url(#node)" filter="url(#glow)"/>
  
  <!-- Row y=52 -->
  <circle cx="4" cy="52" r="1.2" fill="url(#node)" filter="url(#glow)"/><circle cx="8" cy="52" r="1.2" fill="url(#node)" filter="url(#glow)"/><circle cx="12" cy="52" r="1.2" fill="url(#node)" filter="url(#glow)"/>
  
  <!-- skip 24 (left inner leg) --><circle cx="28" cy="52" r="1.2" fill="url(#node)" filter="url(#glow)"/><circle cx="32" cy="52" r="1.2" fill="url(#node)" filter="url(#glow)"/><circle cx="36" cy="52" r="1.2" fill="url(#node)" filter="url(#glow)"/>
  
  <!-- skip 48 (right outer) --><circle cx="52" cy="52" r="1.2" fill="url(#node)" filter="url(#glow)"/><circle cx="56" cy="52" r="1.2" fill="url(#node)" filter="url(#glow)"/><circle cx="60" cy="52" r="1.2" fill="url(#node)" filter="url(#glow)"/>
  
  <!-- Row y=56 -->
  <circle cx="4" cy="56" r="1.2" fill="url(#node)" filter="url(#glow)"/><circle cx="8" cy="56" r="1.2" fill="url(#node)" filter="url(#glow)"/><circle cx="12" cy="56" r="1.2" fill="url(#node)" filter="url(#glow)"/><circle cx="16" cy="56" r="1.2" fill="url(#node)" filter="url(#glow)"/><circle cx="20" cy="56" r="1.2" fill="url(#node)" filter="url(#glow)"/><circle cx="24" cy="56" r="1.2" fill="url(#node)" filter="url(#glow)"/><circle cx="28" cy="56" r="1.2" fill="url(#node)" filter="url(#glow)"/><circle cx="32" cy="56" r="1.2" fill="url(#node)" filter="url(#glow)"/><circle cx="36" cy="56" r="1.2" fill="url(#node)" filter="url(#glow)"/><circle cx="40" cy="56" r="1.2" fill="url(#node)" filter="url(#glow)"/><circle cx="44" cy="56" r="1.2" fill="url(#node)" filter="url(#glow)"/><circle cx="48" cy="56" r="1.2" fill="url(#node)" filter="url(#glow)"/><circle cx="52" cy="56" r="1.2" fill="url(#node)" filter="url(#glow)"/><circle cx="56" cy="56" r="1.2" fill="url(#node)" filter="url(#glow)"/><circle cx="60" cy="56" r="1.2" fill="url(#node)" filter="url(#glow)"/>
  
  <!-- Row y=60 -->
  <circle cx="4" cy="60" r="1.2" fill="url(#node)" filter="url(#glow)"/><circle cx="8" cy="60" r="1.2" fill="url(#node)" filter="url(#glow)"/><circle cx="12" cy="60" r="1.2" fill="url(#node)" filter="url(#glow)"/><circle cx="16" cy="60" r="1.2" fill="url(#node)" filter="url(#glow)"/><circle cx="20" cy="60" r="1.2" fill="url(#node)" filter="url(#glow)"/><circle cx="24" cy="60" r="1.2" fill="url(#node)" filter="url(#glow)"/><circle cx="28" cy="60" r="1.2" fill="url(#node)" filter="url(#glow)"/><circle cx="32" cy="60" r="1.2" fill="url(#node)" filter="url(#glow)"/><circle cx="36" cy="60" r="1.2" fill="url(#node)" filter="url(#glow)"/><circle cx="40" cy="60" r="1.2" fill="url(#node)" filter="url(#glow)"/><circle cx="44" cy="60" r="1.2" fill="url(#node)" filter="url(#glow)"/><circle cx="48" cy="60" r="1.2" fill="url(#node)" filter="url(#glow)"/><circle cx="52" cy="60" r="1.2" fill="url(#node)" filter="url(#glow)"/><circle cx="56" cy="60" r="1.2" fill="url(#node)" filter="url(#glow)"/><circle cx="60" cy="60" r="1.2" fill="url(#node)" filter="url(#glow)"/>
</svg>